<?xml version="1.0" encoding="iso-8859-1"?>
<!-- Uploaded to: SVG Repo, www.svgrepo.com, Generator: SVG Repo Mixer Tools -->
<svg fill="#000000" height="800px" width="800px" version="1.1" id="Layer_1" xmlns="http://www.w3.org/2000/svg" xmlns:xlink="http://www.w3.org/1999/xlink" 
	 viewBox="0 0 452.581 452.581" xml:space="preserve">
<g id="XMLID_807_">
	<g>
		<path d="M428.58,371.32c-2.344-3.772-128.738-207.153-133.259-214.428V30h4.195c8.284,0,15-6.716,15-15s-6.716-15-15-15
			c-6.162,0-140.193,0-146.453,0c-8.284,0-15,6.716-15,15s6.716,15,15,15h4.196v126.893C155.838,159.179,28.565,363.974,24,371.32
			c-21.979,35.367,3.516,81.261,45.174,81.261h314.232C425.046,452.581,450.569,406.702,428.58,371.32z M184.999,169.092
			c1.477-2.377,2.26-5.12,2.26-7.918V30h78.062v131.174c0,2.798,0.783,5.541,2.26,7.918l22.107,35.572H162.892L184.999,169.092z
			 M383.406,422.581H69.173c-18.156,0-29.278-20.005-19.693-35.425l94.768-152.492h164.083l94.768,152.492
			C412.681,402.573,401.567,422.581,383.406,422.581z"/>
	</g>
</g>
</svg>